<?xml version="1.0" encoding="UTF-8"?>
<svg xmlns="http://www.w3.org/2000/svg" xmlns:xlink="http://www.w3.org/1999/xlink" width="2128" height="2163" viewBox="0 0 2128 2163">
<path fill-rule="nonzero" fill="#ae3a33" fill-opacity="1" d="M 626.535156 1079.058594 C 620.273438 1079.058594 614.042969 1076.789062 609.667969 1071.71875 C 601.730469 1062.160156 602.847656 1048.070312 612.160156 1040.160156 L 1061.609375 657 C 1070.089844 650.238281 1082.570312 650.238281 1090.808594 657.570312 L 1515.648438 1040.738281 C 1524.769531 1048.609375 1525.488281 1062.699219 1517.28125 1071.71875 C 1509.101562 1081.289062 1495.058594 1081.871094 1486 1073.421875 L 1075.570312 703.761719 L 640.878906 1073.960938 L 626.535156 1079.058594 "/>
<path fill-rule="nonzero" fill="#ae3a33" fill-opacity="1" d="M 626.535156 1511.785156 C 620.273438 1511.785156 614.042969 1508.988281 609.667969 1503.910156 C 601.730469 1494.328125 602.847656 1480.238281 612.160156 1472.363281 L 1061.609375 1089.738281 C 1070.089844 1082.410156 1082.570312 1082.410156 1090.808594 1089.738281 L 1515.648438 1472.90625 C 1524.769531 1481.355469 1525.488281 1494.902344 1517.28125 1504.484375 C 1509.101562 1513.476562 1495.058594 1514.054688 1486 1505.605469 L 1075.570312 1135.949219 L 640.878906 1506.148438 L 626.535156 1511.785156 "/>
</svg>
