<?xml version="1.0" standalone="no"?>
<!DOCTYPE svg PUBLIC "-//W3C//DTD SVG 20010904//EN"
 "http://www.w3.org/TR/2001/REC-SVG-20010904/DTD/svg10.dtd">
<svg version="1.0" xmlns="http://www.w3.org/2000/svg"
 width="3472.000000pt" height="3472.000000pt" viewBox="0 0 3472.000000 3472.000000"
 preserveAspectRatio="xMidYMid meet">

<g transform="translate(0.000000,3472.000000) scale(0.100000,-0.100000)"
fill="#ae3a33" stroke="none">
<path d="M10200 25693 c-196 -33 -362 -177 -423 -368 l-22 -70 0 -2610 c0
-2509 1 -2612 18 -2670 27 -87 88 -185 153 -244 59 -55 102 -80 194 -115 l55
-21 4616 -3 4617 -2 4 -233 c4 -192 8 -247 26 -317 79 -317 283 -575 568 -718
89 -45 248 -89 369 -103 245 -29 536 51 745 204 30 23 309 294 620 604 l565
563 1120 3 c1056 2 1123 4 1174 21 168 57 287 180 347 356 18 53 19 141 19
2675 l0 2620 -23 65 c-59 172 -173 285 -349 348 -45 16 -477 17 -7208 18
-3938 1 -7171 -1 -7185 -3z m13720 -3048 l0 -2005 -953 0 c-1046 0 -1003 2
-1130 -61 -54 -27 -143 -112 -707 -674 -357 -355 -651 -641 -657 -638 -10 4
-13 104 -13 456 0 496 -3 522 -63 642 -38 77 -136 174 -215 214 -131 66 286
61 -4774 61 l-4598 0 0 2005 0 2005 6555 0 6555 0 0 -2005z"/>
<path d="M13438 23929 c-81 -19 -184 -77 -250 -142 -57 -56 -76 -84 -148 -228
-45 -90 -84 -165 -85 -167 -1 -1 -76 -13 -166 -27 -191 -29 -241 -44 -329
-100 -210 -135 -292 -397 -199 -633 38 -95 83 -154 214 -282 l109 -105 -27
-165 c-32 -194 -33 -241 -8 -336 62 -238 264 -394 509 -394 103 0 172 22 344
110 l157 80 138 -73 c168 -89 213 -105 318 -113 157 -12 312 41 408 141 101
105 156 240 157 382 0 40 -12 138 -26 219 l-25 147 129 131 c147 150 159 165
196 261 34 85 45 213 27 306 -33 164 -168 317 -335 379 -28 11 -112 29 -186
40 -74 11 -150 22 -167 25 -31 6 -38 15 -115 167 -71 141 -90 171 -150 231
-72 72 -166 125 -259 146 -53 13 -179 12 -231 0z"/>
<path d="M17235 23926 c-117 -33 -228 -106 -292 -192 -17 -22 -65 -109 -107
-192 -71 -142 -78 -151 -108 -157 -18 -3 -95 -14 -170 -25 -75 -11 -159 -28
-185 -38 -146 -55 -277 -189 -323 -328 -48 -145 -18 -341 73 -473 17 -25 84
-98 149 -161 l119 -115 -26 -140 c-43 -230 -31 -362 43 -495 71 -129 187 -215
333 -245 160 -34 256 -14 466 95 l154 81 132 -70 c184 -97 225 -111 337 -118
264 -15 474 140 540 397 26 102 25 133 -9 333 l-28 168 105 97 c128 118 182
189 220 290 91 238 11 490 -199 626 -87 57 -140 74 -330 101 -89 13 -162 25
-164 27 -1 2 -37 71 -78 153 -42 83 -91 169 -109 192 -50 63 -135 127 -217
163 -64 28 -89 33 -175 36 -68 3 -117 -1 -151 -10z"/>
<path d="M21047 23929 c-87 -20 -182 -75 -253 -145 -62 -62 -77 -85 -149 -231
-43 -90 -80 -163 -82 -163 -32 0 -342 -54 -378 -66 -168 -57 -319 -228 -346
-394 -16 -97 -4 -216 31 -300 40 -97 55 -117 198 -261 l124 -127 -26 -155
c-31 -186 -32 -259 -7 -350 68 -237 266 -387 509 -387 102 0 172 22 343 110
l156 79 134 -70 c165 -87 223 -108 320 -116 210 -16 393 78 497 256 77 131 88
244 46 483 l-27 150 125 126 c68 70 136 143 150 162 67 94 103 277 79 405 -30
165 -175 329 -339 386 -31 11 -131 31 -222 45 -90 14 -165 26 -166 27 0 1 -36
73 -78 160 -69 144 -83 165 -148 229 -75 74 -167 126 -259 147 -53 13 -179 12
-232 0z"/>
<path d="M17145 18690 c-585 -59 -1094 -298 -1500 -705 -373 -373 -594 -808
-686 -1351 -32 -188 -32 -541 0 -734 67 -410 223 -778 468 -1104 98 -130 329
-361 459 -458 333 -251 697 -406 1119 -475 170 -27 565 -25 740 5 405 70 764
223 1075 458 514 389 841 937 947 1589 25 158 25 545 -1 705 -68 425 -222 790
-475 1125 -41 55 -140 165 -220 245 -373 371 -817 596 -1346 681 -145 23 -446
33 -580 19z m478 -1071 c519 -105 925 -482 1067 -990 173 -622 -123 -1288
-707 -1587 -595 -304 -1317 -136 -1724 403 -234 309 -325 710 -248 1090 106
524 499 937 1019 1070 187 48 402 53 593 14z"/>
<path d="M17000 13294 c-119 -9 -403 -58 -545 -95 -577 -150 -1104 -472 -1504
-917 -405 -449 -657 -980 -757 -1592 -27 -161 -28 -177 -32 -682 -4 -564 -3
-580 52 -694 58 -122 165 -213 316 -268 55 -21 66 -21 2825 -21 l2770 0 70 22
c166 53 288 175 348 348 19 56 21 87 25 445 4 426 -5 616 -44 864 -185 1201
-1076 2185 -2258 2495 -83 22 -227 52 -321 67 -158 25 -194 27 -530 29 -198 1
-385 1 -415 -1z m815 -1072 c428 -76 799 -268 1099 -567 385 -386 596 -891
596 -1427 l0 -148 -2151 0 -2152 0 6 183 c8 252 41 434 119 647 254 697 873
1205 1598 1314 159 24 164 24 480 21 238 -3 316 -7 405 -23z"/>
</g>
</svg>
