<?xml version="1.0" encoding="UTF-8"?>
<svg id="Calque_1" data-name="Calque 1" xmlns="http://www.w3.org/2000/svg" viewBox="0 0 3130.84 3431.63">
  <defs>
    <style>
      .cls-1 {
        fill: #ae3a33;
      }
    </style>
  </defs>
  <path class="cls-1" d="m91.6.67C51.25,7.47,17.08,37.11,4.53,76.42l-4.53,14.41v537.24c0,516.45.21,537.66,3.71,549.6,5.56,17.91,18.11,38.08,31.49,50.23,12.14,11.32,21,16.47,39.93,23.67l11.32,4.32,950.16.62,950.37.41.82,47.96c.82,39.52,1.65,50.84,5.35,65.25,16.26,65.25,58.25,118.36,116.92,147.79,18.32,9.26,51.05,18.32,75.96,21.2,50.43,5.97,110.33-10.5,153.35-41.99,6.18-4.73,63.6-60.52,127.62-124.33l116.3-115.89,230.54-.62c217.37-.41,231.16-.82,241.66-4.32,34.58-11.73,59.08-37.05,71.43-73.28,3.71-10.91,3.91-29.02,3.91-550.62V88.77l-4.73-13.38c-12.14-35.4-35.61-58.66-71.84-71.63-9.26-3.29-98.19-3.5-1483.7-3.71C759.96-.15,94.48.26,91.6.67Zm2824.14,627.4v412.71h-196.17c-215.31,0-206.46-.41-232.6,12.56-11.12,5.56-29.44,23.05-145.53,138.74-73.49,73.07-134,131.94-135.24,131.33-2.06-.82-2.68-21.41-2.68-93.86,0-102.1-.62-107.45-12.97-132.15-7.82-15.85-27.99-35.82-44.26-44.05-26.97-13.59,58.87-12.56-982.68-12.56H217.16V215.36h2698.57v412.71Z"/>
  <path class="cls-1" d="m758.11,363.78c-16.67,3.91-37.87,15.85-51.46,29.23-11.73,11.53-15.64,17.29-30.46,46.93-9.26,18.53-17.29,33.96-17.5,34.38-.21.21-15.64,2.68-34.17,5.56-39.32,5.97-49.61,9.06-67.72,20.58-43.23,27.79-60.11,81.72-40.96,130.3,7.82,19.55,17.08,31.7,44.05,58.05l22.44,21.61-5.56,33.96c-6.59,39.93-6.79,49.61-1.65,69.16,12.76,48.99,54.34,81.1,104.77,81.1,21.2,0,35.4-4.53,70.81-22.64l32.32-16.47,28.41,15.03c34.58,18.32,43.84,21.61,65.46,23.26,32.32,2.47,64.22-8.44,83.98-29.02,20.79-21.61,32.11-49.4,32.32-78.63,0-8.23-2.47-28.41-5.35-45.08l-5.15-30.26,26.55-26.97c30.26-30.88,32.73-33.96,40.34-53.72,7-17.5,9.26-43.84,5.56-62.99-6.79-33.76-34.58-65.25-68.96-78.01-5.76-2.26-23.05-5.97-38.29-8.23-15.23-2.26-30.88-4.53-34.38-5.15-6.38-1.24-7.82-3.09-23.67-34.38-14.61-29.02-18.53-35.2-30.88-47.55-14.82-14.82-34.17-25.73-53.31-30.05-10.91-2.68-36.85-2.47-47.55,0Z"/>
  <path class="cls-1" d="m1539.69,364.39c-24.08,6.79-46.93,21.82-60.11,39.52-3.5,4.53-13.38,22.44-22.02,39.52-14.61,29.23-16.06,31.08-22.23,32.32-3.71.62-19.55,2.88-34.99,5.15-15.44,2.26-32.73,5.76-38.08,7.82-30.05,11.32-57.02,38.9-66.49,67.52-9.88,29.85-3.71,70.19,15.03,97.36,3.5,5.15,17.29,20.17,30.67,33.14l24.5,23.67-5.35,28.82c-8.85,47.34-6.38,74.51,8.85,101.89,14.61,26.55,38.49,44.26,68.55,50.43,32.93,7,52.7,2.88,95.92-19.55l31.7-16.67,27.17,14.41c37.87,19.97,46.31,22.85,69.37,24.29,54.34,3.09,97.57-28.82,111.15-81.72,5.35-21,5.15-27.38-1.85-68.55l-5.76-34.58,21.61-19.97c26.35-24.29,37.46-38.9,45.28-59.69,18.73-48.99,2.26-100.86-40.96-128.86-17.91-11.73-28.82-15.23-67.93-20.79-18.32-2.68-33.35-5.15-33.76-5.56-.21-.41-7.62-14.61-16.06-31.49-8.65-17.08-18.73-34.79-22.44-39.52-10.29-12.97-27.79-26.14-44.67-33.55-13.17-5.76-18.32-6.79-36.02-7.41-14-.62-24.08.21-31.08,2.06Z"/>
  <path class="cls-1" d="m2324.36,363.78c-17.91,4.12-37.46,15.44-52.08,29.85-12.76,12.76-15.85,17.5-30.67,47.55-8.85,18.53-16.47,33.55-16.88,33.55-6.59,0-70.4,11.12-77.81,13.59-34.58,11.73-65.66,46.93-71.22,81.1-3.29,19.97-.82,44.46,6.38,61.75,8.23,19.97,11.32,24.08,40.76,53.72l25.52,26.14-5.35,31.91c-6.38,38.29-6.59,53.31-1.44,72.04,14,48.78,54.75,79.66,104.77,79.66,21,0,35.4-4.53,70.6-22.64l32.11-16.26,27.58,14.41c33.96,17.91,45.9,22.23,65.87,23.88,43.23,3.29,80.9-16.06,102.3-52.7,15.85-26.97,18.11-50.23,9.47-99.42l-5.56-30.88,25.73-25.94c14-14.41,27.99-29.44,30.88-33.35,13.79-19.35,21.2-57.02,16.26-83.37-6.18-33.96-36.02-67.72-69.78-79.45-6.38-2.26-26.97-6.38-45.7-9.26-18.53-2.88-33.96-5.35-34.17-5.56,0-.21-7.41-15.03-16.06-32.93-14.2-29.64-17.08-33.96-30.46-47.14-15.44-15.23-34.38-25.94-53.31-30.26-10.91-2.68-36.85-2.47-47.76,0Z"/>
  <path class="cls-1" d="m1521.16,1442.18c-120.42,12.14-225.19,61.34-308.76,145.12-76.78,76.78-122.27,166.32-141.21,278.09-6.59,38.7-6.59,111.36,0,151.09,13.79,84.39,45.9,160.14,96.33,227.25,20.17,26.76,67.72,74.31,94.48,94.28,68.55,51.67,143.47,83.57,230.34,97.77,34.99,5.56,116.3,5.15,152.32-1.03,83.37-14.41,157.26-45.9,221.28-94.28,105.8-80.07,173.11-192.87,194.93-327.08,5.15-32.52,5.15-112.18-.21-145.12-14-87.48-45.7-162.61-97.77-231.57-8.44-11.32-28.82-33.96-45.28-50.43-76.78-76.37-168.17-122.68-277.06-140.18-29.85-4.73-91.81-6.79-119.39-3.91Zm98.39,220.46c106.83,21.61,190.4,99.22,219.63,203.78,35.61,128.03-25.32,265.12-145.53,326.67-122.48,62.58-271.09,27.99-354.87-82.95-48.17-63.6-66.9-146.15-51.05-224.37,21.82-107.86,102.71-192.87,209.75-220.25,38.49-9.88,82.75-10.91,122.06-2.88Z"/>
  <path class="cls-1" d="m1491.32,2552.89c-24.5,1.85-82.95,11.94-112.18,19.55-118.77,30.88-227.25,97.16-309.58,188.76-83.37,92.42-135.24,201.72-155.82,327.7-5.56,33.14-5.76,36.43-6.59,140.38-.82,116.09-.62,119.39,10.7,142.85,11.94,25.11,33.96,43.84,65.05,55.17,11.32,4.32,13.59,4.32,581.5,4.32h570.18l14.41-4.53c34.17-10.91,59.28-36.02,71.63-71.63,3.91-11.53,4.32-17.91,5.15-91.6.82-87.69-1.03-126.8-9.06-177.85-38.08-247.21-221.48-449.76-464.79-513.57-17.08-4.53-46.73-10.7-66.07-13.79-32.52-5.15-39.93-5.56-109.1-5.97-40.76-.21-79.25-.21-85.42.21Zm167.76,220.66c88.1,15.64,164.47,55.17,226.22,116.71,79.25,79.45,122.68,183.4,122.68,293.73v30.46h-885.73l1.24-37.67c1.65-51.87,8.44-89.33,24.5-133.18,52.28-143.47,179.7-248.04,328.93-270.47,32.73-4.94,33.76-4.94,98.8-4.32,48.99.62,65.05,1.44,83.37,4.73Z"/>
</svg>