<?xml version="1.0" standalone="no"?>
<!DOCTYPE svg PUBLIC "-//W3C//DTD SVG 20010904//EN"
 "http://www.w3.org/TR/2001/REC-SVG-20010904/DTD/svg10.dtd">
<svg version="1.0" xmlns="http://www.w3.org/2000/svg"
 width="5556.000000pt" height="5556.000000pt" viewBox="0 0 5556.000000 5556.000000"
 preserveAspectRatio="xMidYMid meet">

<g transform="translate(0.000000,5556.000000) scale(0.100000,-0.100000)"
fill="#ae3a33" stroke="none">
<path d="M13950 50883 c-1252 -90 -2405 -694 -3189 -1668 -570 -709 -905
-1548 -981 -2460 -6 -80 -10 -6245 -10 -18220 -1 -16260 1 -18115 15 -18250
44 -424 147 -852 300 -1235 60 -152 236 -503 325 -650 752 -1240 2045 -2041
3483 -2159 86 -8 1031 -11 2857 -11 l2728 0 4 -397 c5 -392 5 -400 31 -497 86
-324 333 -569 652 -647 116 -29 295 -31 407 -5 150 34 282 100 388 193 39 34
2090 2151 2724 2811 l32 33 1371 -1418 c754 -780 1398 -1437 1430 -1461 80
-60 222 -128 318 -153 106 -28 316 -31 420 -6 194 48 330 128 466 275 110 119
192 288 219 454 5 35 10 232 10 441 l0 377 8533 0 c7429 0 8541 2 8601 15 328
69 574 300 678 637 l23 73 3 21560 c2 15181 -1 21581 -8 21630 -32 211 -162
430 -330 560 -79 61 -187 117 -290 152 l-85 28 -15540 1 c-8547 0 -15560 -1
-15585 -3z m3900 -18528 l0 -16755 -1982 -3 c-2178 -3 -2037 1 -2398 -63 -492
-88 -1001 -271 -1425 -513 -88 -50 -377 -238 -476 -310 -19 -13 -19 256 -16
15960 2 15067 4 15980 20 16077 63 380 154 654 310 937 462 841 1313 1372
2272 1418 33 2 878 4 1878 5 l1817 2 0 -16755z m26150 0 l0 -16755 -12185 0
-12185 0 0 16755 0 16755 12185 0 12185 0 0 -16755z m-24520 -19540 l0 -1004
-1502 -4 c-1635 -3 -1542 0 -1697 -57 -268 -100 -484 -345 -552 -625 -27 -112
-30 -294 -6 -401 79 -359 371 -635 729 -694 41 -6 586 -10 1546 -10 l1482 0 0
-1005 0 -1005 -2717 3 c-2457 3 -2729 5 -2828 19 -351 53 -600 130 -885 274
-171 86 -256 139 -405 250 -632 472 -1020 1176 -1086 1971 -16 189 -6 793 15
929 80 525 263 950 579 1344 468 584 1176 955 1927 1009 63 5 1304 9 2758 9
l2642 1 0 -1004z m6680 -2015 c0 -1661 -2 -3020 -4 -3020 -2 0 -401 411 -885
913 -485 501 -918 943 -963 980 -95 79 -225 146 -343 178 -67 19 -106 22 -245
22 -179 0 -254 -13 -383 -69 -165 -72 -168 -75 -1074 -1011 -467 -483 -881
-912 -920 -953 l-72 -75 -1 3028 0 3027 2445 0 2445 0 0 -3020z m17840 2010
l0 -1000 -8025 0 -8025 0 0 1000 0 1000 8025 0 8025 0 0 -1000z m0 -3795 l0
-1005 -8025 0 -8025 0 0 1005 0 1005 8025 0 8025 0 0 -1005z"/>
<path d="M31510 46510 c-1470 -97 -2805 -820 -3681 -1995 -473 -635 -782
-1360 -913 -2145 -21 -121 -55 -397 -56 -442 0 -5 -53 -8 -117 -8 -240 0 -594
-30 -833 -71 -1367 -232 -2568 -1016 -3326 -2169 -963 -1466 -1086 -3320 -325
-4895 475 -982 1228 -1756 2201 -2261 l55 -29 5 -5045 5 -5045 28 -88 c54
-174 152 -329 272 -431 83 -72 208 -143 299 -172 45 -14 155 -58 246 -98 1953
-866 3837 -1324 5820 -1416 278 -13 997 -13 1265 0 2008 97 3894 558 5860
1435 77 34 154 65 170 69 92 23 238 104 327 183 155 137 246 297 288 505 20
95 20 159 20 5100 l0 5003 93 47 c280 143 624 374 902 606 123 103 493 475
594 597 686 829 1074 1793 1152 2860 15 203 6 680 -16 874 -166 1484 -958
2788 -2190 3608 -814 542 -1775 832 -2757 833 l-117 0 -5 33 c-2 17 -14 113
-25 212 -97 834 -435 1673 -949 2360 -270 360 -628 719 -987 991 -679 513
-1508 852 -2343 959 -295 37 -698 52 -962 35z m540 -1795 c577 -34 1193 -264
1674 -626 300 -227 535 -475 741 -784 303 -455 476 -944 526 -1488 17 -184 7
-541 -21 -737 -17 -116 -21 -179 -16 -251 21 -338 211 -616 520 -759 131 -61
199 -75 371 -75 135 0 163 3 280 32 162 40 264 59 430 78 151 17 485 20 636 5
958 -97 1815 -609 2344 -1400 552 -826 689 -1849 373 -2785 -303 -896 -979
-1606 -1858 -1949 -281 -110 -369 -162 -488 -291 -115 -125 -194 -289 -222
-457 -6 -42 -10 -1051 -10 -2999 l0 -2937 -117 -50 c-401 -171 -936 -368
-1391 -512 l-153 -48 6 42 c3 22 141 1492 306 3266 244 2617 300 3243 295
3320 -9 163 -57 305 -147 440 -310 463 -961 533 -1367 146 -105 -100 -204
-271 -241 -417 -14 -54 -112 -1075 -352 -3645 -182 -1963 -333 -3571 -335
-3573 -14 -16 -743 -105 -1031 -126 l-93 -7 -2 3648 -3 3649 -23 75 c-94 306
-335 541 -637 622 -113 30 -336 30 -447 0 -275 -74 -496 -267 -602 -524 -72
-174 -66 160 -66 -3854 l0 -3616 -92 7 c-274 19 -1000 108 -1026 124 -5 3
-158 1610 -341 3571 -241 2586 -337 3587 -351 3645 -39 158 -134 321 -253 432
-160 150 -349 228 -577 239 -192 10 -369 -39 -531 -145 -141 -93 -282 -267
-340 -421 -31 -81 -59 -225 -59 -306 0 -56 584 -6389 604 -6550 l5 -41 -152
47 c-432 136 -989 341 -1389 512 l-118 50 0 2918 c0 2017 -3 2943 -11 2997
-26 192 -111 363 -249 504 -126 129 -171 155 -455 265 -808 313 -1458 949
-1791 1751 -380 916 -311 1956 189 2818 435 752 1199 1313 2047 1504 505 113
939 108 1490 -19 157 -36 271 -45 378 -30 169 23 311 83 442 187 105 83 181
177 241 298 94 191 114 339 78 590 -20 139 -23 200 -24 465 0 338 8 422 70
695 141 632 480 1219 950 1647 555 505 1256 801 1985 838 150 7 200 7 400 -5z
m-5510 -19440 c342 -127 851 -289 1245 -399 2546 -705 5124 -741 7670 -105
596 149 1339 381 1848 578 l27 11 -2 -1101 -3 -1100 -80 -35 c-253 -110 -759
-304 -1084 -415 -1878 -641 -3759 -868 -5626 -678 -1149 117 -2290 388 -3455
821 -221 82 -543 210 -685 272 l-80 35 -3 1100 -2 1100 37 -13 c21 -8 108 -40
193 -71z"/>
</g>
</svg>
