<?xml version="1.0" encoding="UTF-8"?>
<svg id="Layer_1" data-name="Layer 1" xmlns="http://www.w3.org/2000/svg" viewBox="0 0 98.68 66.88">
  <defs>
    <style>
      .cls-1 {
        fill: #ae3a33;
      }
    </style>
  </defs>
  <path class="cls-1" d="m89.21,66.71H9.46c-5.22,0-9.46-4.24-9.46-9.46V9.81C0,4.6,4.25.35,9.46.35h79.75c5.22,0,9.46,4.25,9.46,9.46v47.43c0,5.22-4.25,9.46-9.46,9.46ZM9.46,2.66c-3.95,0-7.16,3.21-7.16,7.16v47.43c0,3.95,3.21,7.16,7.16,7.16h79.75c3.95,0,7.16-3.21,7.16-7.16V9.81c0-3.95-3.21-7.16-7.16-7.16H9.46Z"/>
  <path class="cls-1" d="m49.39,2.31l40.3.04c.57.08,1.91.34,3.16,1.23-2.72.16-3.81,1.47-5.41,3.38-.23.28-.49.58-.77.92l-37.28,37.2L12.11,7.87c-.29-.33-.54-.64-.77-.92-1.6-1.92-2.7-3.22-5.42-3.38,1.26-.89,2.61-1.15,3.16-1.23l40.31-.04h0m0-2.31h0L8.95.04S.43.87,1.02,10.2c.02.36.08.51.18.51.53,0,2.12-4.85,4.16-4.85,2.39,0,2.72.83,5.07,3.57l38.97,38.88h0s0,0,0,0h0s0,0,0,0L88.37,9.44c2.35-2.74,2.67-3.57,5.07-3.57,2.03,0,3.63,4.85,4.16,4.85.09,0,.15-.15.18-.51C98.35.87,89.83.04,89.83.04l-40.44-.04h0Z"/>
  <path class="cls-1" d="m98.05,56.69c-.02-.36-.08-.51-.18-.51-.53,0-2.12,4.85-4.16,4.85-2.39,0-2.72-.83-5.07-3.57l-25.13-25.08-1.64,1.62,25.08,25.03c.29.33.54.64.77.91,1.63,1.95,2.74,3.27,5.57,3.39-1.15.85-2.37,1.09-2.88,1.16l-40.74.1-41.55-.05c-.44-.08-1.56-.37-2.66-1.2.05,0,.11,0,.16,0,3.15,0,4.28-1.35,5.99-3.4.23-.28.49-.58.77-.91l24.15-24.1-1.68-1.58-24.17,24.11c-2.35,2.74-2.67,3.57-5.07,3.57-2.04,0-4.14-5.07-4.8-5.07-.11,0-.19.15-.21.5-.59,9.33,7.31,10.39,7.31,10.39l41.74.05h0l40.87-.1s8.09-.77,7.5-10.1Z"/>
</svg>