<?xml version="1.0" encoding="UTF-8"?>
<svg id="Layer_1" data-name="Layer 1" xmlns="http://www.w3.org/2000/svg" viewBox="0 0 494 429.09">
  <defs>
    <style>
      .cls-1 {
        fill: #ae3a33;
      }
    </style>
  </defs>
  <path class="cls-1" d="m189.96,176.68c0-7.07,2.27-14.24,6.81-21.5s11.17-13.27,19.88-18.04c8.71-4.76,18.88-7.15,30.49-7.15,10.8,0,20.33,1.99,28.59,5.98,8.26,3.98,14.65,9.4,19.15,16.25s6.76,14.3,6.76,22.34c0,6.33-1.28,11.88-3.85,16.64-2.57,4.77-5.62,8.88-9.16,12.34-3.54,3.46-9.88,9.29-19.04,17.48-2.53,2.31-4.56,4.34-6.09,6.09s-2.66,3.35-3.41,4.8-1.32,2.9-1.73,4.36c-.41,1.45-1.02,4-1.84,7.65-1.42,7.74-5.85,11.62-13.29,11.62-3.87,0-7.13-1.27-9.77-3.8s-3.96-6.29-3.96-11.28c0-6.25.97-11.67,2.9-16.25,1.94-4.58,4.5-8.6,7.71-12.06,3.2-3.46,7.52-7.58,12.96-12.34,4.76-4.17,8.21-7.32,10.33-9.44s3.91-4.49,5.36-7.09c1.45-2.61,2.18-5.43,2.18-8.49,0-5.96-2.22-10.98-6.65-15.08-4.43-4.09-10.15-6.14-17.14-6.14-8.19,0-14.22,2.07-18.09,6.2-3.87,4.13-7.15,10.22-9.83,18.26-2.53,8.41-7.33,12.62-14.41,12.62-4.17,0-7.69-1.47-10.55-4.41-2.87-2.94-4.3-6.12-4.3-9.55h0Zm54.5,122.4c-4.54,0-8.51-1.47-11.9-4.41s-5.08-7.05-5.08-12.34c0-4.69,1.64-8.64,4.91-11.84,3.27-3.2,7.3-4.8,12.06-4.8s8.64,1.6,11.84,4.8c3.2,3.2,4.8,7.15,4.8,11.84,0,5.21-1.68,9.31-5.03,12.29s-7.22,4.47-11.61,4.47h.01Z"/>
  <path class="cls-1" d="m421.05,58.83C374.48,20.89,312.67,0,247,0S119.52,20.89,72.95,58.83C25.91,97.16,0,148.24,0,202.68c0,44.56,18.14,88.32,51.16,123.56L1.41,412.8c-2.35,4.08-1.71,9.15,1.58,12.61,2.23,2.34,5.42,3.68,8.77,3.68,1.51,0,2.99-.27,4.4-.8l118.72-44.96c34.48,14.41,73.2,22.02,112.12,22.02,65.67,0,127.48-20.89,174.05-58.83,47.04-38.33,72.95-89.41,72.95-143.84s-25.91-105.52-72.95-143.84v-.02ZM75.83,329.81c2.42-4.22,1.69-9.38-1.83-12.85-32.55-32.13-50.48-72.71-50.48-114.28C23.52,103.1,123.77,22.08,247,22.08s223.48,81.01,223.48,180.58-100.25,180.58-223.48,180.58c-37.35,0-74.31-7.6-106.89-21.97-3.28-1.45-6.99-1.4-10.23.11l-92.3,34.96,38.24-66.54h.01Z"/>
</svg>