<?xml version="1.0" standalone="no"?>
<!DOCTYPE svg PUBLIC "-//W3C//DTD SVG 20010904//EN"
 "http://www.w3.org/TR/2001/REC-SVG-20010904/DTD/svg10.dtd">
<svg version="1.0" xmlns="http://www.w3.org/2000/svg"
 width="3883.000000pt" height="3883.000000pt" viewBox="0 0 3883.000000 3883.000000"
 preserveAspectRatio="xMidYMid meet">

<g transform="translate(0.000000,3883.000000) scale(0.100000,-0.100000)"
fill="#ae3a33" stroke="none">
<path d="M10199 31814 c-96 -29 -192 -122 -230 -223 -12 -30 -14 -1195 -17
-7288 l-2 -7253 -1893 -2 -1892 -3 -58 -29 c-71 -36 -130 -99 -165 -174 l-27
-57 0 -3805 c0 -3567 1 -3812 17 -3917 10 -62 27 -154 38 -205 198 -892 891
-1588 1782 -1793 59 -13 160 -32 225 -42 113 -17 608 -18 11443 -18 l11325 0
145 23 c533 86 960 301 1331 671 369 369 596 817 676 1336 17 116 18 486 18
11310 0 9201 -2 11198 -13 11235 -31 105 -130 204 -235 235 -45 13 -1285 15
-11236 14 -9661 0 -11192 -2 -11232 -15z m22014 -11526 c1 -5964 1 -10895 0
-10958 -16 -801 -628 -1485 -1436 -1604 -98 -15 -1057 -16 -10453 -16 l-10346
0 69 78 c350 391 551 857 602 1396 8 76 11 3475 11 11028 l0 10918 10775 0
10775 0 3 -10842z m-22266 -7530 c-3 -3309 -4 -3599 -20 -3673 -74 -356 -226
-644 -467 -885 -300 -300 -688 -471 -1107 -487 -498 -20 -992 192 -1320 565
-210 240 -363 582 -403 902 -7 57 -10 1223 -10 3627 l0 3543 1665 0 1665 0 -3
-3592z"/>
<path d="M12309 29771 c-115 -37 -203 -130 -234 -247 -23 -87 -23 -2061 0
-2148 32 -122 129 -219 251 -251 52 -13 1060 -15 9109 -15 8049 0 9057 2 9109
15 78 21 156 74 200 138 68 100 66 58 66 1193 0 973 -1 1025 -19 1083 -33 107
-111 190 -213 229 -40 16 -708 17 -9128 19 -8732 2 -9087 1 -9141 -16z m17791
-1321 l0 -630 -8665 0 -8665 0 0 630 0 630 8665 0 8665 0 0 -630z"/>
<path d="M12337 24979 c-106 -25 -209 -115 -246 -215 l-21 -55 2 -4327 3
-4327 26 -56 c34 -72 96 -134 168 -168 l56 -26 4592 -3 4592 -2 55 20 c108 41
192 137 215 246 9 46 11 1021 9 4359 l-3 4300 -26 55 c-49 106 -128 171 -238
196 -46 11 -853 14 -4601 13 -2597 -1 -4561 -5 -4583 -10z m8763 -4589 l0
-3900 -4170 0 -4170 0 0 3900 0 3900 4170 0 4170 0 0 -3900z"/>
<path d="M23105 24976 c-92 -29 -169 -98 -212 -191 -23 -51 -28 -73 -28 -145
0 -71 5 -94 27 -141 46 -100 118 -163 223 -196 57 -18 7377 -19 7439 -1 55 16
135 67 170 109 57 66 81 135 81 229 0 71 -5 94 -27 142 -35 75 -94 138 -165
174 l-58 29 -3705 2 c-2957 1 -3713 -1 -3745 -11z"/>
<path d="M23083 23269 c-75 -29 -153 -104 -189 -181 -24 -53 -28 -76 -29 -148
0 -77 3 -92 33 -152 38 -77 92 -130 171 -167 l56 -26 3710 0 3710 0 56 26
c106 50 172 132 199 248 37 160 -61 342 -215 400 l-56 21 -3697 -1 c-3682 0
-3697 0 -3749 -20z"/>
<path d="M23076 21565 c-275 -113 -286 -505 -18 -637 l67 -33 3710 0 3710 0
57 27 c137 64 221 210 204 356 -15 129 -105 248 -219 290 l-58 22 -3697 0
-3697 0 -59 -25z"/>
<path d="M23152 19889 c-205 -40 -331 -237 -278 -434 7 -27 21 -65 30 -84 23
-43 94 -114 137 -137 89 -46 -84 -44 3794 -44 3882 0 3704 -2 3794 45 57 29
127 109 152 172 17 43 23 79 23 138 0 69 -4 89 -30 145 -53 111 -139 176 -264
200 -66 12 -7294 12 -7358 -1z"/>
<path d="M23143 18190 c-299 -60 -383 -460 -132 -632 107 -74 -231 -68 3824
-68 4048 0 3717 -6 3822 66 107 73 167 214 146 340 -26 153 -130 261 -281 293
-63 13 -7311 14 -7379 1z"/>
<path d="M23122 16484 c-149 -40 -262 -186 -262 -339 0 -110 64 -229 155 -290
107 -71 -223 -65 3820 -65 4045 0 3713 -6 3820 66 87 57 155 184 155 289 0
105 -68 232 -155 289 -107 72 225 66 -3825 65 -3142 0 -3662 -2 -3708 -15z"/>
<path d="M12322 14784 c-76 -20 -154 -75 -196 -139 -144 -216 -26 -496 229
-544 45 -9 2396 -11 9120 -9 l9060 3 65 31 c114 54 182 144 203 268 29 172
-86 347 -258 391 -53 13 -1010 15 -9115 14 -7832 0 -9062 -2 -9108 -15z"/>
<path d="M12316 13085 c-156 -43 -270 -213 -251 -375 15 -127 103 -244 221
-291 l59 -24 9055 -3 c5984 -1 9073 1 9109 8 125 23 212 89 265 200 26 56 30
76 30 145 0 104 -28 177 -93 244 -53 55 -93 78 -166 97 -75 20 -18156 19
-18229 -1z"/>
<path d="M12309 11384 c-154 -47 -263 -214 -244 -374 15 -128 105 -246 221
-289 l55 -21 9094 0 9094 0 58 22 c114 42 204 161 219 290 17 146 -67 292
-204 356 l-57 27 -9095 2 c-7858 1 -9101 0 -9141 -13z"/>
</g>
</svg>
